<mxfile host="app.diagrams.net" modified="2023-09-06T06:52:40.410Z" agent="Mozilla/5.0 (Windows NT 10.0; Win64; x64) AppleWebKit/537.36 (KHTML, like Gecko) Chrome/116.0.0.0 Safari/537.36" version="21.7.2" etag="qRA1ZJW8NEA9yxY7k_T6" type="github">
  <diagram name="Trang-1" id="VXK1NkTDLBaFF8ZI_pXd">
    <mxGraphModel>
      <root>
        <mxCell id="0" />
        <mxCell id="1" parent="0" />
      </root>
    </mxGraphModel>
  </diagram>
</mxfile>
